NotoSansAdlam-Bold.ufo
<glyph name="J" format="2">
  <advance width="331"/>
  <unicode hex="004A"/>
  <anchor x="30" y="-170" name="bottom"/>
  <anchor x="171" y="714" name="top"/>
  <anchor x="287" y="714" name="topright"/>
  <outline>
    <contour>
      <point x="15" y="-210" type="curve" smooth="yes"/>
      <point x="168" y="-210"/>
      <point x="241" y="-118"/>
      <point x="241" y="46" type="curve" smooth="yes"/>
      <point x="241" y="714" type="line"/>
      <point x="90" y="714" type="line"/>
      <point x="90" y="45" type="line" smooth="yes"/>
      <point x="90" y="-32"/>
      <point x="72" y="-83"/>
      <point x="-3" y="-83" type="curve" smooth="yes"/>
      <point x="-29.667" y="-83"/>
      <point x="-52.667" y="-78.333"/>
      <point x="-74" y="-73" type="curve"/>
      <point x="-74" y="-199" type="line"/>
      <point x="-52.667" y="-205.667"/>
      <point x="-23.667" y="-210"/>
    </contour>
  </outline>
</glyph>
<glyph name="acute" format="2">
  <advance width="362"/>
  <unicode hex="00B4"/>
  <note>
acute
</note>
  <outline>
    <contour>
      <point x="40" y="606" type="line"/>
      <point x="139" y="606" type="line"/>
      <point x="187.464" y="639.159"/>
      <point x="284.523" y="718.523"/>
      <point x="322" y="756" type="curve"/>
      <point x="322" y="766" type="line"/>
      <point x="155" y="766" type="line"/>
      <point x="124.897" y="721.849"/>
      <point x="78.62" y="664.861"/>
      <point x="40" y="619" type="curve"/>
    </contour>
  </outline>
</glyph>
<glyph name="emdash" format="2">
  <advance width="1000"/>
  <unicode hex="2014"/>
  <outline>
    <contour>
      <point x="40" y="213" type="line"/>
      <point x="960" y="213" type="line"/>
      <point x="960" y="325" type="line"/>
      <point x="40" y="325" type="line"/>
    </contour>
  </outline>
</glyph>
<glyph name="afii00208" format="2">
  <advance width="1000"/>
  <unicode hex="2015"/>
  <outline>
    <contour>
      <point x="40" y="213" type="line"/>
      <point x="960" y="213" type="line"/>
      <point x="960" y="325" type="line"/>
      <point x="40" y="325" type="line"/>
    </contour>
  </outline>
</glyph>
<glyph name="Pe-adlam" format="2">
  <advance width="645"/>
  <unicode hex="1E906"/>
  <anchor x="338" y="663" name="top"/>
  <outline>
    <contour>
      <point x="140" y="0" type="curve" smooth="yes"/>
      <point x="555" y="0" type="line"/>
      <point x="555" y="125" type="line"/>
      <point x="276" y="125" type="line" smooth="yes"/>
      <point x="249" y="125"/>
      <point x="241" y="136"/>
      <point x="241" y="160" type="curve" smooth="yes"/>
      <point x="241" y="589" type="line"/>
      <point x="249" y="593"/>
      <point x="268" y="599"/>
      <point x="298" y="599" type="curve" smooth="yes"/>
      <point x="367" y="599"/>
      <point x="429" y="550"/>
      <point x="429" y="435" type="curve" smooth="yes"/>
      <point x="429" y="340"/>
      <point x="379" y="293"/>
      <point x="344" y="260" type="curve"/>
      <point x="444" y="153" type="line"/>
      <point x="487" y="190"/>
      <point x="585" y="275"/>
      <point x="585" y="439" type="curve" smooth="yes"/>
      <point x="585" y="623"/>
      <point x="483" y="724"/>
      <point x="298" y="724" type="curve" smooth="yes"/>
      <point x="192" y="724"/>
      <point x="118" y="694"/>
      <point x="90" y="676" type="curve"/>
      <point x="90" y="48" type="line" smooth="yes"/>
      <point x="90" y="17"/>
      <point x="103" y="0"/>
    </contour>
  </outline>
</glyph>
<glyph name="Bhe-adlam" format="2">
  <advance width="718"/>
  <unicode hex="1E907"/>
  <anchor x="365" y="663" name="top"/>
  <outline>
    <contour>
      <point x="65" y="0" type="line"/>
      <point x="245" y="0" type="line" smooth="yes"/>
      <point x="276" y="0"/>
      <point x="303" y="0"/>
      <point x="340" y="14" type="curve" smooth="yes"/>
      <point x="385" y="31"/>
      <point x="421" y="81"/>
      <point x="421" y="178" type="curve"/>
      <point x="429" y="198"/>
      <point x="456" y="226"/>
      <point x="472" y="233" type="curve"/>
      <point x="477" y="231" type="line"/>
      <point x="477" y="0" type="line"/>
      <point x="628" y="0" type="line"/>
      <point x="628" y="516" type="line"/>
      <point x="477" y="516" type="line"/>
      <point x="477" y="341" type="line"/>
      <point x="456" y="333"/>
      <point x="418" y="306"/>
      <point x="404" y="281" type="curve"/>
      <point x="399" y="281" type="line"/>
      <point x="390" y="310"/>
      <point x="358" y="350"/>
      <point x="300" y="402" type="curve" smooth="yes"/>
      <point x="246" y="450"/>
      <point x="216" y="477"/>
      <point x="216" y="529" type="curve" smooth="yes"/>
      <point x="216" y="570"/>
      <point x="247" y="589"/>
      <point x="309" y="589" type="curve" smooth="yes"/>
      <point x="628" y="589" type="line"/>
      <point x="628" y="714" type="line"/>
      <point x="309" y="714" type="line" smooth="yes"/>
      <point x="136" y="714"/>
      <point x="60" y="656"/>
      <point x="60" y="527" type="curve" smooth="yes"/>
      <point x="60" y="419"/>
      <point x="109" y="379"/>
      <point x="173" y="321" type="curve" smooth="yes"/>
      <point x="250" y="252"/>
      <point x="268" y="229"/>
      <point x="268" y="181" type="curve" smooth="yes"/>
      <point x="268" y="134"/>
      <point x="244" y="125"/>
      <point x="199" y="125" type="curve" smooth="yes"/>
      <point x="65" y="125" type="line"/>
    </contour>
  </outline>
</glyph>
<glyph name="ha-adlam" format="2">
  <advance width="578"/>
  <unicode hex="1E938"/>
  <anchor x="271" y="575" name="gemconsonanttop"/>
  <anchor x="254" y="575" name="top"/>
  <outline>
    <contour>
      <point x="35" y="0" type="line"/>
      <point x="252" y="0" type="line" smooth="yes"/>
      <point x="392" y="0"/>
      <point x="503" y="59"/>
      <point x="503" y="272" type="curve" smooth="yes"/>
      <point x="503" y="478"/>
      <point x="388" y="540"/>
      <point x="234" y="540" type="curve" smooth="yes"/>
      <point x="219" y="540" type="line" smooth="yes"/>
      <point x="193" y="540"/>
      <point x="190" y="548"/>
      <point x="190" y="569" type="curve" smooth="yes"/>
      <point x="190" y="624" type="line"/>
      <point x="41" y="624" type="line"/>
      <point x="41" y="517" type="line" smooth="yes"/>
      <point x="41" y="443"/>
      <point x="52" y="420"/>
      <point x="120" y="420" type="curve" smooth="yes"/>
      <point x="201" y="420" type="line" smooth="yes"/>
      <point x="301" y="420"/>
      <point x="351" y="378"/>
      <point x="351" y="270" type="curve" smooth="yes"/>
      <point x="351" y="158"/>
      <point x="301" y="120"/>
      <point x="201" y="120" type="curve" smooth="yes"/>
      <point x="35" y="120" type="line"/>
    </contour>
  </outline>
</glyph>
<glyph name="hamza-adlam" format="2">
  <unicode hex="1E947"/>
  <anchor x="238" y="460" name="_top"/>
  <outline>
    <contour>
      <point x="212" y="595" type="curve" smooth="yes"/>
      <point x="385" y="595"/>
      <point x="447" y="724"/>
      <point x="447" y="889" type="curve"/>
      <point x="322" y="898" type="line"/>
      <point x="322" y="771"/>
      <point x="289" y="696"/>
      <point x="215" y="696" type="curve" smooth="yes"/>
      <point x="168" y="696"/>
      <point x="146" y="714"/>
      <point x="146" y="752" type="curve" smooth="yes"/>
      <point x="146" y="795"/>
      <point x="172" y="808"/>
      <point x="201" y="808" type="curve" smooth="yes"/>
      <point x="224" y="808"/>
      <point x="236" y="801"/>
      <point x="240" y="797" type="curve"/>
      <point x="279" y="887" type="line"/>
      <point x="271" y="895"/>
      <point x="251" y="909"/>
      <point x="190" y="909" type="curve" smooth="yes"/>
      <point x="116" y="909"/>
      <point x="20" y="867"/>
      <point x="20" y="749" type="curve" smooth="yes"/>
      <point x="20" y="662"/>
      <point x="69" y="595"/>
    </contour>
  </outline>
</glyph>
<glyph name="Chi-adlam.medi" format="2">
  <advance width="770"/>
  <anchor x="392" y="663" name="top"/>
  <outline>
    <contour>
      <point x="0" y="0" type="curve" smooth="yes"/>
      <point x="458" y="0" type="line"/>
      <point x="458" y="120" type="line"/>
      <point x="369" y="120" type="line" smooth="yes"/>
      <point x="273" y="120"/>
      <point x="235" y="156"/>
      <point x="235" y="231" type="curve" smooth="yes"/>
      <point x="235" y="300"/>
      <point x="280" y="354"/>
      <point x="386" y="354" type="curve" smooth="yes"/>
      <point x="473" y="354"/>
      <point x="511" y="314"/>
      <point x="529" y="291" type="curve"/>
      <point x="529" y="118" type="line" smooth="yes"/>
      <point x="529" y="32"/>
      <point x="548" y="0"/>
      <point x="643" y="0" type="curve" smooth="yes"/>
      <point x="770" y="0" type="line" smooth="yes"/>
      <point x="795" y="0"/>
      <point x="810" y="7"/>
      <point x="810" y="38" type="curve" smooth="yes"/>
      <point x="810" y="120" type="line"/>
      <point x="730" y="120" type="line" smooth="yes"/>
      <point x="689" y="120"/>
      <point x="680" y="136"/>
      <point x="680" y="178" type="curve" smooth="yes"/>
      <point x="680" y="597" type="line" smooth="yes"/>
      <point x="680" y="683"/>
      <point x="662" y="714"/>
      <point x="568" y="714" type="curve" smooth="yes"/>
      <point x="346" y="714" type="line"/>
      <point x="346" y="589" type="line"/>
      <point x="480" y="589" type="line" smooth="yes"/>
      <point x="520" y="589"/>
      <point x="529" y="573"/>
      <point x="529" y="533" type="curve" smooth="yes"/>
      <point x="529" y="438" type="line"/>
      <point x="525" y="436" type="line"/>
      <point x="504" y="454"/>
      <point x="481" y="471"/>
      <point x="377" y="483" type="curve" smooth="yes"/>
      <point x="274" y="495"/>
      <point x="249" y="517"/>
      <point x="249" y="638" type="curve" smooth="yes"/>
      <point x="249" y="743" type="line"/>
      <point x="98" y="743" type="line"/>
      <point x="98" y="616" type="line" smooth="yes"/>
      <point x="98" y="469"/>
      <point x="155" y="428"/>
      <point x="239" y="417" type="curve"/>
      <point x="239" y="411" type="line"/>
      <point x="158" y="392"/>
      <point x="80" y="330"/>
      <point x="80" y="213" type="curve" smooth="yes"/>
      <point x="80" y="177"/>
      <point x="85" y="146"/>
      <point x="94" y="120" type="curve"/>
      <point x="-40" y="120" type="line"/>
      <point x="-40" y="38" type="line" smooth="yes"/>
      <point x="-40" y="7"/>
      <point x="-25" y="0"/>
    </contour>
  </outline>
</glyph>
<glyph name="Ha-adlam.init" format="2">
  <advance width="680"/>
  <anchor x="342" y="663" name="gemconsonanttop"/>
  <anchor x="346" y="663" name="top"/>
  <outline>
    <contour>
      <point x="0" y="0" type="curve" smooth="yes"/>
      <point x="303" y="0" type="line" smooth="yes"/>
      <point x="518" y="0"/>
      <point x="620" y="72"/>
      <point x="620" y="265" type="curve" smooth="yes"/>
      <point x="620" y="463"/>
      <point x="518" y="531"/>
      <point x="323" y="531" type="curve" smooth="yes"/>
      <point x="277" y="531" type="line" smooth="yes"/>
      <point x="236" y="531"/>
      <point x="227" y="547"/>
      <point x="227" y="589" type="curve" smooth="yes"/>
      <point x="227" y="714" type="line"/>
      <point x="76" y="714" type="line"/>
      <point x="76" y="524" type="line" smooth="yes"/>
      <point x="76" y="438"/>
      <point x="94" y="406"/>
      <point x="189" y="406" type="curve" smooth="yes"/>
      <point x="277" y="406" type="line" smooth="yes"/>
      <point x="388" y="406"/>
      <point x="464" y="368"/>
      <point x="464" y="260" type="curve" smooth="yes"/>
      <point x="464" y="167"/>
      <point x="419" y="120"/>
      <point x="287" y="120" type="curve" smooth="yes"/>
      <point x="-40" y="120" type="line"/>
      <point x="-40" y="38" type="line" smooth="yes"/>
      <point x="-40" y="7"/>
      <point x="-25" y="0"/>
    </contour>
  </outline>
</glyph>
<glyph name="Laam-adlam.init" format="2">
  <advance width="872"/>
  <anchor x="408" y="663" name="top"/>
  <outline>
    <contour>
      <point x="0" y="0" type="curve" smooth="yes"/>
      <point x="403" y="0" type="line" smooth="yes"/>
      <point x="497" y="0"/>
      <point x="515" y="32"/>
      <point x="515" y="118" type="curve" smooth="yes"/>
      <point x="515" y="244" type="line" smooth="yes"/>
      <point x="515" y="297"/>
      <point x="521" y="304"/>
      <point x="569" y="339" type="curve" smooth="yes"/>
      <point x="614" y="372"/>
      <point x="623" y="379"/>
      <point x="629" y="385" type="curve"/>
      <point x="631" y="384" type="line"/>
      <point x="631" y="0" type="line"/>
      <point x="782" y="0" type="line"/>
      <point x="782" y="714" type="line"/>
      <point x="631" y="714" type="line"/>
      <point x="631" y="536" type="line" smooth="yes"/>
      <point x="631" y="499"/>
      <point x="624" y="493"/>
      <point x="579" y="462" type="curve" smooth="yes"/>
      <point x="543" y="437"/>
      <point x="528" y="426"/>
      <point x="518" y="416" type="curve"/>
      <point x="515" y="416" type="line"/>
      <point x="515" y="522" type="line" smooth="yes"/>
      <point x="515" y="681"/>
      <point x="445" y="726"/>
      <point x="312" y="726" type="curve" smooth="yes"/>
      <point x="132" y="726"/>
      <point x="58" y="614"/>
      <point x="40" y="571" type="curve"/>
      <point x="40" y="374" type="line"/>
      <point x="191" y="374" type="line"/>
      <point x="191" y="543" type="line"/>
      <point x="202" y="566"/>
      <point x="231" y="600"/>
      <point x="293" y="600" type="curve" smooth="yes"/>
      <point x="347" y="600"/>
      <point x="364" y="573"/>
      <point x="364" y="522" type="curve" smooth="yes"/>
      <point x="364" y="178" type="line" smooth="yes"/>
      <point x="364" y="136"/>
      <point x="355" y="120"/>
      <point x="315" y="120" type="curve" smooth="yes"/>
      <point x="-40" y="120" type="line"/>
      <point x="-40" y="38" type="line" smooth="yes"/>
      <point x="-40" y="7"/>
      <point x="-25" y="0"/>
    </contour>
  </outline>
</glyph>
<glyph name="Miim-adlam.medi" format="2">
  <advance width="895"/>
  <anchor x="312" y="663" name="top"/>
  <outline>
    <contour>
      <point x="0" y="0" type="curve" smooth="yes"/>
      <point x="347" y="0" type="line" smooth="yes"/>
      <point x="510" y="0"/>
      <point x="579" y="49"/>
      <point x="579" y="178" type="curve" smooth="yes"/>
      <point x="579" y="187"/>
      <point x="579" y="196"/>
      <point x="578" y="205" type="curve"/>
      <point x="603" y="217"/>
      <point x="634" y="240"/>
      <point x="649" y="257" type="curve"/>
      <point x="654" y="255" type="line"/>
      <point x="654" y="118" type="line" smooth="yes"/>
      <point x="654" y="32"/>
      <point x="673" y="0"/>
      <point x="768" y="0" type="curve" smooth="yes"/>
      <point x="895" y="0" type="line" smooth="yes"/>
      <point x="920" y="0"/>
      <point x="935" y="7"/>
      <point x="935" y="38" type="curve" smooth="yes"/>
      <point x="935" y="120" type="line"/>
      <point x="855" y="120" type="line" smooth="yes"/>
      <point x="814" y="120"/>
      <point x="805" y="136"/>
      <point x="805" y="178" type="curve" smooth="yes"/>
      <point x="805" y="714" type="line"/>
      <point x="654" y="714" type="line"/>
      <point x="654" y="379" type="line"/>
      <point x="627" y="347"/>
      <point x="583" y="312"/>
      <point x="550" y="294" type="curve"/>
      <point x="513" y="355"/>
      <point x="445" y="395"/>
      <point x="354" y="427" type="curve" smooth="yes"/>
      <point x="217" y="475"/>
      <point x="191" y="488"/>
      <point x="191" y="538" type="curve" smooth="yes"/>
      <point x="191" y="579"/>
      <point x="231" y="599"/>
      <point x="312" y="599" type="curve" smooth="yes"/>
      <point x="382" y="599"/>
      <point x="423" y="576"/>
      <point x="423" y="519" type="curve" smooth="yes"/>
      <point x="423" y="493"/>
      <point x="410" y="473"/>
      <point x="398" y="459" type="curve"/>
      <point x="520" y="396" type="line"/>
      <point x="540" y="414"/>
      <point x="579" y="456"/>
      <point x="579" y="538" type="curve" smooth="yes"/>
      <point x="579" y="654"/>
      <point x="514" y="724"/>
      <point x="316" y="724" type="curve" smooth="yes"/>
      <point x="132" y="724"/>
      <point x="35" y="662"/>
      <point x="35" y="535" type="curve" smooth="yes"/>
      <point x="35" y="401"/>
      <point x="109" y="370"/>
      <point x="244" y="320" type="curve" smooth="yes"/>
      <point x="382" y="269"/>
      <point x="425" y="238"/>
      <point x="425" y="178" type="curve" smooth="yes"/>
      <point x="425" y="136"/>
      <point x="404" y="120"/>
      <point x="347" y="120" type="curve" smooth="yes"/>
      <point x="-40" y="120" type="line"/>
      <point x="-40" y="38" type="line" smooth="yes"/>
      <point x="-40" y="7"/>
      <point x="-25" y="0"/>
    </contour>
  </outline>
</glyph>
<glyph name="O-adlam.init" format="2">
  <advance width="766"/>
  <anchor x="384" y="0" name="bottom"/>
  <anchor x="399" y="663" name="top"/>
  <anchor x="434" y="587" name="vowellengthencomb-adlam.case"/>
  <outline>
    <contour>
      <point x="0" y="0" type="curve" smooth="yes"/>
      <point x="681" y="0" type="line"/>
      <point x="681" y="120" type="line"/>
      <point x="479" y="120" type="line" smooth="yes"/>
      <point x="313" y="120"/>
      <point x="226" y="202"/>
      <point x="226" y="374" type="curve" smooth="yes"/>
      <point x="226" y="541"/>
      <point x="298" y="599"/>
      <point x="394" y="599" type="curve" smooth="yes"/>
      <point x="499" y="599"/>
      <point x="541" y="511"/>
      <point x="560" y="471" type="curve"/>
      <point x="696" y="549" type="line"/>
      <point x="675" y="594"/>
      <point x="616" y="724"/>
      <point x="396" y="724" type="curve" smooth="yes"/>
      <point x="195" y="724"/>
      <point x="70" y="617"/>
      <point x="70" y="360" type="curve" smooth="yes"/>
      <point x="70" y="230"/>
      <point x="109" y="153"/>
      <point x="136" y="125" type="curve"/>
      <point x="135" y="120" type="line"/>
      <point x="-40" y="120" type="line"/>
      <point x="-40" y="38" type="line" smooth="yes"/>
      <point x="-40" y="7"/>
      <point x="-25" y="0"/>
    </contour>
  </outline>
</glyph>
<glyph name="Right_connector" format="2">
  <advance width="613"/>
  <outline>
    <contour>
      <point x="214" y="0" type="curve" smooth="yes"/>
      <point x="513" y="0" type="line"/>
      <point x="513" y="120" type="line"/>
      <point x="301" y="120" type="line" smooth="yes"/>
      <point x="260" y="120"/>
      <point x="251" y="136"/>
      <point x="251" y="178" type="curve" smooth="yes"/>
      <point x="251" y="714" type="line"/>
      <point x="100" y="714" type="line"/>
      <point x="100" y="118" type="line" smooth="yes"/>
      <point x="100" y="32"/>
      <point x="119" y="0"/>
    </contour>
  </outline>
</glyph>
<glyph name="Tu-adlam.init" format="2">
  <advance width="973"/>
  <anchor x="467" y="666" name="gemconsonanttop"/>
  <anchor x="481" y="666" name="top"/>
  <outline>
    <contour>
      <point x="0" y="0" type="curve" smooth="yes"/>
      <point x="127" y="0" type="line" smooth="yes"/>
      <point x="222" y="0"/>
      <point x="241" y="32"/>
      <point x="241" y="118" type="curve" smooth="yes"/>
      <point x="241" y="573" type="line"/>
      <point x="251" y="585"/>
      <point x="273" y="599"/>
      <point x="320" y="599" type="curve" smooth="yes"/>
      <point x="378" y="599"/>
      <point x="403" y="568"/>
      <point x="412" y="553" type="curve"/>
      <point x="412" y="54" type="line" smooth="yes"/>
      <point x="412" y="17"/>
      <point x="426" y="0"/>
      <point x="472" y="0" type="curve" smooth="yes"/>
      <point x="878" y="0" type="line"/>
      <point x="878" y="120" type="line"/>
      <point x="604" y="120" type="line" smooth="yes"/>
      <point x="572" y="120"/>
      <point x="563" y="131"/>
      <point x="563" y="163" type="curve" smooth="yes"/>
      <point x="563" y="569" type="line"/>
      <point x="574" y="579"/>
      <point x="601" y="599"/>
      <point x="647" y="599" type="curve" smooth="yes"/>
      <point x="695" y="599"/>
      <point x="742" y="566"/>
      <point x="742" y="461" type="curve" smooth="yes"/>
      <point x="742" y="354"/>
      <point x="705" y="298"/>
      <point x="662" y="245" type="curve"/>
      <point x="783" y="162" type="line"/>
      <point x="839" y="227"/>
      <point x="893" y="308"/>
      <point x="893" y="473" type="curve" smooth="yes"/>
      <point x="893" y="656"/>
      <point x="811" y="724"/>
      <point x="665" y="724" type="curve" smooth="yes"/>
      <point x="559" y="724"/>
      <point x="491" y="681"/>
      <point x="468" y="659" type="curve"/>
      <point x="461" y="659" type="line"/>
      <point x="445" y="679"/>
      <point x="404" y="724"/>
      <point x="298" y="724" type="curve" smooth="yes"/>
      <point x="158" y="724"/>
      <point x="110" y="656"/>
      <point x="90" y="620" type="curve"/>
      <point x="90" y="178" type="line" smooth="yes"/>
      <point x="90" y="136"/>
      <point x="81" y="120"/>
      <point x="40" y="120" type="curve" smooth="yes"/>
      <point x="-40" y="120" type="line"/>
      <point x="-40" y="38" type="line" smooth="yes"/>
      <point x="-40" y="7"/>
      <point x="-25" y="0"/>
    </contour>
  </outline>
</glyph>
<glyph name="Two-way_connector" format="2">
  <advance width="595"/>
  <outline>
    <contour>
      <point x="-40" y="0" type="line"/>
      <point x="192" y="0" type="line" smooth="yes"/>
      <point x="250" y="0"/>
      <point x="280" y="12"/>
      <point x="294" y="48" type="curve"/>
      <point x="300" y="48" type="line"/>
      <point x="314" y="12"/>
      <point x="341" y="0"/>
      <point x="395" y="0" type="curve" smooth="yes"/>
      <point x="635" y="0" type="line"/>
      <point x="635" y="120" type="line"/>
      <point x="423" y="120" type="line" smooth="yes"/>
      <point x="382" y="120"/>
      <point x="373" y="136"/>
      <point x="373" y="178" type="curve" smooth="yes"/>
      <point x="373" y="714" type="line"/>
      <point x="222" y="714" type="line"/>
      <point x="222" y="178" type="line" smooth="yes"/>
      <point x="222" y="136"/>
      <point x="213" y="120"/>
      <point x="172" y="120" type="curve" smooth="yes"/>
      <point x="-40" y="120" type="line"/>
    </contour>
  </outline>
</glyph>
<glyph name="Va-adlam.fina" format="2">
  <advance width="709"/>
  <anchor x="355" y="663" name="top"/>
  <outline>
    <contour>
      <point x="90" y="0" type="line"/>
      <point x="241" y="0" type="line"/>
      <point x="241" y="531" type="line" smooth="yes"/>
      <point x="241" y="573"/>
      <point x="250" y="589"/>
      <point x="290" y="589" type="curve" smooth="yes"/>
      <point x="468" y="589" type="line"/>
      <point x="468" y="400" type="line"/>
      <point x="316" y="400" type="line"/>
      <point x="316" y="275" type="line"/>
      <point x="468" y="275" type="line"/>
      <point x="468" y="118" type="line" smooth="yes"/>
      <point x="468" y="32"/>
      <point x="487" y="0"/>
      <point x="582" y="0" type="curve" smooth="yes"/>
      <point x="709" y="0" type="line" smooth="yes"/>
      <point x="734" y="0"/>
      <point x="749" y="7"/>
      <point x="749" y="38" type="curve" smooth="yes"/>
      <point x="749" y="120" type="line"/>
      <point x="669" y="120" type="line" smooth="yes"/>
      <point x="628" y="120"/>
      <point x="619" y="136"/>
      <point x="619" y="178" type="curve" smooth="yes"/>
      <point x="619" y="714" type="line"/>
      <point x="202" y="714" type="line" smooth="yes"/>
      <point x="108" y="714"/>
      <point x="90" y="682"/>
      <point x="90" y="596" type="curve" smooth="yes"/>
    </contour>
  </outline>
</glyph>
<glyph name="Yhe-adlam.init" format="2">
  <advance width="683"/>
  <anchor x="340" y="663" name="top"/>
  <outline>
    <contour>
      <point x="0" y="0" type="curve" smooth="yes"/>
      <point x="628" y="0" type="line"/>
      <point x="628" y="120" type="line"/>
      <point x="395" y="120" type="line" smooth="yes"/>
      <point x="280" y="120"/>
      <point x="231" y="173"/>
      <point x="231" y="268" type="curve" smooth="yes"/>
      <point x="231" y="358"/>
      <point x="272" y="413"/>
      <point x="375" y="413" type="curve" smooth="yes"/>
      <point x="628" y="413" type="line"/>
      <point x="628" y="538" type="line"/>
      <point x="558" y="580"/>
      <point x="391" y="703"/>
      <point x="351" y="745" type="curve"/>
      <point x="268" y="651" type="line"/>
      <point x="304" y="614"/>
      <point x="379" y="562"/>
      <point x="415" y="543" type="curve"/>
      <point x="413" y="538" type="line"/>
      <point x="375" y="538" type="line" smooth="yes"/>
      <point x="161" y="538"/>
      <point x="75" y="437"/>
      <point x="75" y="268" type="curve" smooth="yes"/>
      <point x="75" y="190"/>
      <point x="92" y="142"/>
      <point x="104" y="126" type="curve"/>
      <point x="103" y="120" type="line"/>
      <point x="-40" y="120" type="line"/>
      <point x="-40" y="38" type="line" smooth="yes"/>
      <point x="-40" y="7"/>
      <point x="-25" y="0"/>
    </contour>
  </outline>
</glyph>
<glyph name="Yhe-adlam.isol" format="2">
  <advance width="683"/>
  <anchor x="364" y="666" name="top"/>
  <outline>
    <contour>
      <point x="395" y="0" type="curve" smooth="yes"/>
      <point x="628" y="0" type="line"/>
      <point x="628" y="125" type="line"/>
      <point x="395" y="125" type="line" smooth="yes"/>
      <point x="280" y="125"/>
      <point x="231" y="173"/>
      <point x="231" y="268" type="curve" smooth="yes"/>
      <point x="231" y="358"/>
      <point x="272" y="413"/>
      <point x="375" y="413" type="curve" smooth="yes"/>
      <point x="628" y="413" type="line"/>
      <point x="628" y="538" type="line"/>
      <point x="558" y="580"/>
      <point x="391" y="703"/>
      <point x="351" y="745" type="curve"/>
      <point x="268" y="651" type="line"/>
      <point x="304" y="614"/>
      <point x="379" y="562"/>
      <point x="415" y="543" type="curve"/>
      <point x="413" y="538" type="line"/>
      <point x="375" y="538" type="line" smooth="yes"/>
      <point x="161" y="538"/>
      <point x="75" y="437"/>
      <point x="75" y="268" type="curve" smooth="yes"/>
      <point x="75" y="84"/>
      <point x="166" y="0"/>
    </contour>
  </outline>
</glyph>
<glyph name="daali-adlam.fina" format="2">
  <advance width="640"/>
  <anchor x="289" y="585" name="gemconsonanttop"/>
  <anchor x="307" y="585" name="top"/>
  <outline>
    <contour>
      <point x="60" y="0" type="line"/>
      <point x="370" y="0" type="line" smooth="yes"/>
      <point x="428" y="0"/>
      <point x="458" y="12"/>
      <point x="472" y="48" type="curve"/>
      <point x="478" y="48" type="line"/>
      <point x="492" y="12"/>
      <point x="519" y="0"/>
      <point x="573" y="0" type="curve" smooth="yes"/>
      <point x="640" y="0" type="line" smooth="yes"/>
      <point x="665" y="0"/>
      <point x="680" y="7"/>
      <point x="680" y="38" type="curve" smooth="yes"/>
      <point x="680" y="120" type="line"/>
      <point x="600" y="120" type="line" smooth="yes"/>
      <point x="559" y="120"/>
      <point x="550" y="136"/>
      <point x="550" y="178" type="curve" smooth="yes"/>
      <point x="550" y="585" type="line"/>
      <point x="401" y="585" type="line"/>
      <point x="401" y="307" type="line"/>
      <point x="395" y="304" type="line"/>
      <point x="384" y="315"/>
      <point x="362" y="328"/>
      <point x="295" y="346" type="curve" smooth="yes"/>
      <point x="221" y="366"/>
      <point x="209" y="374"/>
      <point x="209" y="466" type="curve" smooth="yes"/>
      <point x="209" y="585" type="line"/>
      <point x="60" y="585" type="line"/>
      <point x="60" y="430" type="line" smooth="yes"/>
      <point x="60" y="279"/>
      <point x="112" y="263"/>
      <point x="256" y="233" type="curve" smooth="yes"/>
      <point x="379" y="207"/>
      <point x="401" y="193"/>
      <point x="401" y="156" type="curve" smooth="yes"/>
      <point x="401" y="128"/>
      <point x="385" y="120"/>
      <point x="351" y="120" type="curve" smooth="yes"/>
      <point x="60" y="120" type="line"/>
    </contour>
  </outline>
</glyph>
<glyph name="dha-adlam.isol" format="2">
  <advance width="749"/>
  <anchor x="364" y="636" name="top"/>
  <outline>
    <contour>
      <point x="369" y="-10" type="curve" smooth="yes"/>
      <point x="580" y="-10"/>
      <point x="659" y="54"/>
      <point x="659" y="231" type="curve" smooth="yes"/>
      <point x="659" y="714" type="line"/>
      <point x="510" y="714" type="line"/>
      <point x="510" y="522" type="line"/>
      <point x="502" y="520" type="line"/>
      <point x="491" y="536"/>
      <point x="463" y="575"/>
      <point x="376" y="575" type="curve" smooth="yes"/>
      <point x="289" y="575"/>
      <point x="259" y="536"/>
      <point x="247" y="513" type="curve"/>
      <point x="239" y="515" type="line"/>
      <point x="239" y="585" type="line"/>
      <point x="90" y="585" type="line"/>
      <point x="90" y="231" type="line" smooth="yes"/>
      <point x="90" y="54"/>
      <point x="162" y="-10"/>
    </contour>
    <contour>
      <point x="375" y="110" type="curve" smooth="yes"/>
      <point x="278" y="110"/>
      <point x="239" y="147"/>
      <point x="239" y="231" type="curve" smooth="yes"/>
      <point x="239" y="314" type="line" smooth="yes"/>
      <point x="239" y="393"/>
      <point x="275" y="455"/>
      <point x="378" y="455" type="curve" smooth="yes"/>
      <point x="473" y="455"/>
      <point x="510" y="393"/>
      <point x="510" y="314" type="curve" smooth="yes"/>
      <point x="510" y="231" type="line" smooth="yes"/>
      <point x="510" y="147"/>
      <point x="475" y="110"/>
    </contour>
  </outline>
</glyph>
<glyph name="dha-adlam.medisol" format="2">
  <advance width="749"/>
  <anchor x="364" y="640" name="top"/>
  <outline>
    <contour>
      <point x="375" y="-10" type="curve" smooth="yes"/>
      <point x="583" y="-10"/>
      <point x="659" y="69"/>
      <point x="659" y="246" type="curve" smooth="yes"/>
      <point x="659" y="714" type="line"/>
      <point x="510" y="714" type="line"/>
      <point x="510" y="522" type="line"/>
      <point x="502" y="520" type="line"/>
      <point x="491" y="536"/>
      <point x="463" y="575"/>
      <point x="376" y="575" type="curve" smooth="yes"/>
      <point x="289" y="575"/>
      <point x="259" y="536"/>
      <point x="247" y="513" type="curve"/>
      <point x="239" y="515" type="line"/>
      <point x="239" y="585" type="line"/>
      <point x="90" y="585" type="line"/>
      <point x="90" y="246" type="line" smooth="yes"/>
      <point x="90" y="69"/>
      <point x="167" y="-10"/>
    </contour>
    <contour>
      <point x="375" y="110" type="curve" smooth="yes"/>
      <point x="284" y="110"/>
      <point x="239" y="162"/>
      <point x="239" y="246" type="curve" smooth="yes"/>
      <point x="239" y="314" type="line" smooth="yes"/>
      <point x="239" y="393"/>
      <point x="275" y="455"/>
      <point x="378" y="455" type="curve" smooth="yes"/>
      <point x="473" y="455"/>
      <point x="510" y="393"/>
      <point x="510" y="314" type="curve" smooth="yes"/>
      <point x="510" y="246" type="line" smooth="yes"/>
      <point x="510" y="162"/>
      <point x="475" y="110"/>
    </contour>
  </outline>
</glyph>
<glyph name="gbe-adlam.isol" format="2">
  <advance width="602"/>
  <anchor x="292" y="591" name="top"/>
  <outline>
    <contour>
      <point x="206" y="0" type="curve" smooth="yes"/>
      <point x="543" y="0" type="line"/>
      <point x="543" y="120" type="line"/>
      <point x="302" y="120" type="line" smooth="yes"/>
      <point x="247" y="120"/>
      <point x="239" y="132"/>
      <point x="239" y="186" type="curve" smooth="yes"/>
      <point x="239" y="221" type="line"/>
      <point x="245" y="224" type="line"/>
      <point x="259" y="212"/>
      <point x="294" y="185"/>
      <point x="365" y="185" type="curve" smooth="yes"/>
      <point x="480" y="185"/>
      <point x="547" y="241"/>
      <point x="547" y="355" type="curve" smooth="yes"/>
      <point x="547" y="473"/>
      <point x="460" y="504"/>
      <point x="354" y="556" type="curve" smooth="yes"/>
      <point x="252" y="606"/>
      <point x="205" y="635"/>
      <point x="172" y="671" type="curve"/>
      <point x="92" y="569" type="line"/>
      <point x="130" y="527"/>
      <point x="185" y="498"/>
      <point x="278" y="454" type="curve" smooth="yes"/>
      <point x="363" y="414"/>
      <point x="395" y="396"/>
      <point x="395" y="355" type="curve" smooth="yes"/>
      <point x="395" y="318"/>
      <point x="363" y="305"/>
      <point x="324" y="305" type="curve" smooth="yes"/>
      <point x="285" y="305"/>
      <point x="256" y="318"/>
      <point x="239" y="332" type="curve"/>
      <point x="239" y="428" type="line"/>
      <point x="90" y="428" type="line"/>
      <point x="90" y="119" type="line" smooth="yes"/>
      <point x="90" y="27"/>
      <point x="102" y="0"/>
    </contour>
  </outline>
</glyph>
<glyph name="i-adlam.medi" format="2">
  <advance width="742"/>
  <anchor x="374" y="640" name="top"/>
  <outline>
    <contour>
      <point x="369" y="-10" type="curve" smooth="yes"/>
      <point x="519" y="-10"/>
      <point x="571" y="25"/>
      <point x="589" y="40" type="curve"/>
      <point x="594" y="40" type="line"/>
      <point x="599" y="25"/>
      <point x="619" y="0"/>
      <point x="685" y="0" type="curve" smooth="yes"/>
      <point x="742" y="0" type="line" smooth="yes"/>
      <point x="767" y="0"/>
      <point x="782" y="7"/>
      <point x="782" y="38" type="curve" smooth="yes"/>
      <point x="782" y="120" type="line"/>
      <point x="702" y="120" type="line" smooth="yes"/>
      <point x="661" y="120"/>
      <point x="652" y="136"/>
      <point x="652" y="178" type="curve" smooth="yes"/>
      <point x="652" y="585" type="line"/>
      <point x="503" y="585" type="line"/>
      <point x="503" y="222" type="line" smooth="yes"/>
      <point x="503" y="130"/>
      <point x="458" y="110"/>
      <point x="371" y="110" type="curve" smooth="yes"/>
      <point x="285" y="110"/>
      <point x="239" y="130"/>
      <point x="239" y="222" type="curve" smooth="yes"/>
      <point x="239" y="714" type="line"/>
      <point x="90" y="714" type="line"/>
      <point x="90" y="178" type="line" smooth="yes"/>
      <point x="90" y="136"/>
      <point x="81" y="120"/>
      <point x="40" y="120" type="curve" smooth="yes"/>
      <point x="-40" y="120" type="line"/>
      <point x="-40" y="38" type="line" smooth="yes"/>
      <point x="-40" y="7"/>
      <point x="-25" y="0"/>
      <point x="0" y="0" type="curve" smooth="yes"/>
      <point x="49" y="0" type="line" smooth="yes"/>
      <point x="110" y="0"/>
      <point x="134" y="17"/>
      <point x="147" y="40" type="curve"/>
      <point x="152" y="40" type="line"/>
      <point x="163" y="29"/>
      <point x="208" y="-10"/>
    </contour>
  </outline>
</glyph>
<glyph name="jiim-adlam.init" format="2">
  <advance width="852"/>
  <anchor x="429" y="0" name="bottom"/>
  <anchor x="433" y="575" name="gemconsonanttop"/>
  <anchor x="435" y="575" name="top"/>
  <outline>
    <contour>
      <point x="623" y="-130" type="line"/>
      <point x="772" y="-130" type="line"/>
      <point x="772" y="378" type="line" smooth="yes"/>
      <point x="772" y="524"/>
      <point x="698" y="563"/>
      <point x="612" y="563" type="curve" smooth="yes"/>
      <point x="529" y="563"/>
      <point x="491" y="523"/>
      <point x="478" y="501" type="curve"/>
      <point x="473" y="501" type="line"/>
      <point x="458" y="534"/>
      <point x="430" y="595"/>
      <point x="292" y="595" type="curve" smooth="yes"/>
      <point x="139" y="595"/>
      <point x="80" y="530"/>
      <point x="80" y="380" type="curve" smooth="yes"/>
      <point x="80" y="178" type="line" smooth="yes"/>
      <point x="80" y="136"/>
      <point x="71" y="120"/>
      <point x="30" y="120" type="curve" smooth="yes"/>
      <point x="-40" y="120" type="line"/>
      <point x="-40" y="38" type="line" smooth="yes"/>
      <point x="-40" y="7"/>
      <point x="-25" y="0"/>
      <point x="0" y="0" type="curve" smooth="yes"/>
      <point x="115" y="0" type="line" smooth="yes"/>
      <point x="210" y="0"/>
      <point x="229" y="32"/>
      <point x="229" y="118" type="curve" smooth="yes"/>
      <point x="229" y="386" type="line" smooth="yes"/>
      <point x="229" y="444"/>
      <point x="250" y="475"/>
      <point x="292" y="475" type="curve" smooth="yes"/>
      <point x="334" y="475"/>
      <point x="352" y="439"/>
      <point x="352" y="386" type="curve" smooth="yes"/>
      <point x="352" y="0" type="line"/>
      <point x="501" y="0" type="line"/>
      <point x="501" y="350" type="line" smooth="yes"/>
      <point x="501" y="406"/>
      <point x="524" y="443"/>
      <point x="566" y="443" type="curve" smooth="yes"/>
      <point x="608" y="443"/>
      <point x="623" y="411"/>
      <point x="623" y="344" type="curve" smooth="yes"/>
    </contour>
  </outline>
</glyph>
<glyph name="kaf-adlam.init" format="2">
  <advance width="694"/>
  <anchor x="327" y="575" name="top"/>
  <outline>
    <contour>
      <point x="0" y="0" type="curve" smooth="yes"/>
      <point x="217" y="0" type="line" smooth="yes"/>
      <point x="320" y="0"/>
      <point x="332" y="27"/>
      <point x="332" y="119" type="curve" smooth="yes"/>
      <point x="332" y="229" type="line"/>
      <point x="455" y="229" type="line"/>
      <point x="455" y="0" type="line"/>
      <point x="604" y="0" type="line"/>
      <point x="604" y="466" type="line" smooth="yes"/>
      <point x="604" y="558"/>
      <point x="589" y="585"/>
      <point x="496" y="585" type="curve" smooth="yes"/>
      <point x="60" y="585" type="line"/>
      <point x="60" y="465" type="line"/>
      <point x="391" y="465" type="line" smooth="yes"/>
      <point x="447" y="465"/>
      <point x="455" y="453"/>
      <point x="455" y="399" type="curve" smooth="yes"/>
      <point x="455" y="349" type="line"/>
      <point x="332" y="349" type="line"/>
      <point x="332" y="409" type="line"/>
      <point x="183" y="409" type="line"/>
      <point x="183" y="349" type="line"/>
      <point x="95" y="349" type="line"/>
      <point x="95" y="229" type="line"/>
      <point x="183" y="229" type="line"/>
      <point x="183" y="186" type="line" smooth="yes"/>
      <point x="183" y="132"/>
      <point x="176" y="120"/>
      <point x="120" y="120" type="curve" smooth="yes"/>
      <point x="-40" y="120" type="line"/>
      <point x="-40" y="38" type="line" smooth="yes"/>
      <point x="-40" y="7"/>
      <point x="-25" y="0"/>
    </contour>
  </outline>
</glyph>
<glyph name="kpo-adlam.init" format="2">
  <advance width="658"/>
  <anchor x="363" y="572" name="top"/>
  <outline>
    <contour>
      <point x="0" y="0" type="curve" smooth="yes"/>
      <point x="40" y="0" type="line" smooth="yes"/>
      <point x="63" y="0"/>
      <point x="86" y="12"/>
      <point x="95" y="40" type="curve"/>
      <point x="101" y="40" type="line"/>
      <point x="115" y="12"/>
      <point x="145" y="0"/>
      <point x="203" y="0" type="curve" smooth="yes"/>
      <point x="580" y="0" type="line"/>
      <point x="580" y="120" type="line"/>
      <point x="289" y="120" type="line" smooth="yes"/>
      <point x="248" y="120"/>
      <point x="239" y="136"/>
      <point x="239" y="178" type="curve" smooth="yes"/>
      <point x="239" y="400" type="line"/>
      <point x="251" y="435"/>
      <point x="289" y="475"/>
      <point x="354" y="475" type="curve" smooth="yes"/>
      <point x="406" y="475"/>
      <point x="441" y="445"/>
      <point x="441" y="383" type="curve" smooth="yes"/>
      <point x="441" y="320"/>
      <point x="400" y="302"/>
      <point x="363" y="302" type="curve" smooth="yes"/>
      <point x="338" y="302"/>
      <point x="323" y="307"/>
      <point x="316" y="311" type="curve"/>
      <point x="280" y="201" type="line"/>
      <point x="295" y="192"/>
      <point x="323" y="182"/>
      <point x="379" y="182" type="curve" smooth="yes"/>
      <point x="483" y="182"/>
      <point x="593" y="234"/>
      <point x="593" y="399" type="curve" smooth="yes"/>
      <point x="593" y="538"/>
      <point x="509" y="595"/>
      <point x="405" y="595" type="curve" smooth="yes"/>
      <point x="293" y="595"/>
      <point x="261" y="543"/>
      <point x="248" y="519" type="curve"/>
      <point x="239" y="522" type="line"/>
      <point x="239" y="585" type="line"/>
      <point x="90" y="585" type="line"/>
      <point x="90" y="178" type="line" smooth="yes"/>
      <point x="90" y="136"/>
      <point x="81" y="120"/>
      <point x="40" y="120" type="curve" smooth="yes"/>
      <point x="-40" y="120" type="line"/>
      <point x="-40" y="38" type="line" smooth="yes"/>
      <point x="-40" y="7"/>
      <point x="-25" y="0"/>
    </contour>
  </outline>
</glyph>
<glyph name="laam-adlam.medi" format="2">
  <advance width="641"/>
  <anchor x="306" y="575" name="top"/>
  <outline>
    <contour>
      <point x="0" y="0" type="curve" smooth="yes"/>
      <point x="438" y="0" type="line" smooth="yes"/>
      <point x="496" y="0"/>
      <point x="526" y="12"/>
      <point x="540" y="40" type="curve"/>
      <point x="546" y="40" type="line"/>
      <point x="555" y="12"/>
      <point x="578" y="0"/>
      <point x="601" y="0" type="curve" smooth="yes"/>
      <point x="641" y="0" type="line" smooth="yes"/>
      <point x="666" y="0"/>
      <point x="681" y="7"/>
      <point x="681" y="38" type="curve" smooth="yes"/>
      <point x="681" y="120" type="line"/>
      <point x="601" y="120" type="line" smooth="yes"/>
      <point x="560" y="120"/>
      <point x="551" y="136"/>
      <point x="551" y="178" type="curve" smooth="yes"/>
      <point x="551" y="409" type="line" smooth="yes"/>
      <point x="551" y="543"/>
      <point x="489" y="595"/>
      <point x="356" y="595" type="curve" smooth="yes"/>
      <point x="167" y="595"/>
      <point x="81" y="482"/>
      <point x="65" y="442" type="curve"/>
      <point x="65" y="261" type="line"/>
      <point x="214" y="261" type="line"/>
      <point x="214" y="409" type="line"/>
      <point x="223" y="427"/>
      <point x="260" y="475"/>
      <point x="330" y="475" type="curve" smooth="yes"/>
      <point x="379" y="475"/>
      <point x="402" y="452"/>
      <point x="402" y="399" type="curve" smooth="yes"/>
      <point x="402" y="186" type="line" smooth="yes"/>
      <point x="402" y="132"/>
      <point x="395" y="120"/>
      <point x="339" y="120" type="curve" smooth="yes"/>
      <point x="-40" y="120" type="line"/>
      <point x="-40" y="38" type="line" smooth="yes"/>
      <point x="-40" y="7"/>
      <point x="-25" y="0"/>
    </contour>
  </outline>
</glyph>
<glyph name="o-adlam.init" format="2">
  <advance width="640"/>
  <anchor x="346" y="0" name="bottom"/>
  <anchor x="347" y="575" name="top"/>
  <outline>
    <contour>
      <point x="0" y="0" type="curve" smooth="yes"/>
      <point x="595" y="0" type="line"/>
      <point x="595" y="120" type="line"/>
      <point x="405" y="120" type="line" smooth="yes"/>
      <point x="311" y="120"/>
      <point x="207" y="130"/>
      <point x="207" y="306" type="curve" smooth="yes"/>
      <point x="207" y="430"/>
      <point x="260" y="475"/>
      <point x="336" y="475" type="curve" smooth="yes"/>
      <point x="412" y="475"/>
      <point x="442" y="414"/>
      <point x="460" y="376" type="curve"/>
      <point x="595" y="446" type="line"/>
      <point x="565" y="508"/>
      <point x="509" y="595"/>
      <point x="341" y="595" type="curve" smooth="yes"/>
      <point x="161" y="595"/>
      <point x="55" y="485"/>
      <point x="55" y="297" type="curve" smooth="yes"/>
      <point x="55" y="187"/>
      <point x="81" y="140"/>
      <point x="90" y="126" type="curve"/>
      <point x="89" y="120" type="line"/>
      <point x="-40" y="120" type="line"/>
      <point x="-40" y="38" type="line" smooth="yes"/>
      <point x="-40" y="7"/>
      <point x="-25" y="0"/>
    </contour>
  </outline>
</glyph>
<glyph name="ra-adlam.init" format="2">
  <advance width="674"/>
  <anchor x="357" y="640" name="top"/>
  <outline>
    <contour>
      <point x="0" y="0" type="curve" smooth="yes"/>
      <point x="40" y="0" type="line" smooth="yes"/>
      <point x="63" y="0"/>
      <point x="86" y="12"/>
      <point x="95" y="40" type="curve"/>
      <point x="101" y="40" type="line"/>
      <point x="115" y="12"/>
      <point x="145" y="0"/>
      <point x="203" y="0" type="curve" smooth="yes"/>
      <point x="613" y="0" type="line"/>
      <point x="613" y="120" type="line"/>
      <point x="302" y="120" type="line" smooth="yes"/>
      <point x="246" y="120"/>
      <point x="239" y="132"/>
      <point x="239" y="186" type="curve" smooth="yes"/>
      <point x="239" y="265" type="line"/>
      <point x="244" y="267" type="line"/>
      <point x="262" y="236"/>
      <point x="312" y="213"/>
      <point x="390" y="213" type="curve" smooth="yes"/>
      <point x="531" y="213"/>
      <point x="614" y="271"/>
      <point x="614" y="424" type="curve" smooth="yes"/>
      <point x="614" y="585" type="line"/>
      <point x="465" y="585" type="line"/>
      <point x="465" y="424" type="line" smooth="yes"/>
      <point x="465" y="363"/>
      <point x="426" y="333"/>
      <point x="355" y="333" type="curve" smooth="yes"/>
      <point x="284" y="333"/>
      <point x="248" y="373"/>
      <point x="239" y="406" type="curve"/>
      <point x="239" y="714" type="line"/>
      <point x="90" y="714" type="line"/>
      <point x="90" y="178" type="line" smooth="yes"/>
      <point x="90" y="136"/>
      <point x="81" y="120"/>
      <point x="40" y="120" type="curve" smooth="yes"/>
      <point x="-40" y="120" type="line"/>
      <point x="-40" y="38" type="line" smooth="yes"/>
      <point x="-40" y="7"/>
      <point x="-25" y="0"/>
    </contour>
  </outline>
</glyph>
<glyph name="tu-adlam.isol" format="2">
  <advance width="858"/>
  <anchor x="425" y="575" name="gemconsonanttop"/>
  <anchor x="438" y="575" name="top"/>
  <outline>
    <contour>
      <point x="90" y="-120" type="line"/>
      <point x="239" y="-120" type="line"/>
      <point x="239" y="382" type="line" smooth="yes"/>
      <point x="239" y="448"/>
      <point x="266" y="475"/>
      <point x="305" y="475" type="curve" smooth="yes"/>
      <point x="332" y="475"/>
      <point x="351" y="463"/>
      <point x="360" y="444" type="curve"/>
      <point x="360" y="119" type="line" smooth="yes"/>
      <point x="360" y="27"/>
      <point x="372" y="0"/>
      <point x="476" y="0" type="curve" smooth="yes"/>
      <point x="778" y="0" type="line"/>
      <point x="778" y="120" type="line"/>
      <point x="571" y="120" type="line" smooth="yes"/>
      <point x="515" y="120"/>
      <point x="508" y="133"/>
      <point x="508" y="187" type="curve" smooth="yes"/>
      <point x="508" y="444" type="line"/>
      <point x="518" y="463"/>
      <point x="538" y="475"/>
      <point x="565" y="475" type="curve" smooth="yes"/>
      <point x="604" y="475"/>
      <point x="636" y="441"/>
      <point x="636" y="365" type="curve" smooth="yes"/>
      <point x="636" y="293"/>
      <point x="614" y="256"/>
      <point x="592" y="237" type="curve"/>
      <point x="706" y="159" type="line"/>
      <point x="755" y="201"/>
      <point x="788" y="277"/>
      <point x="788" y="380" type="curve" smooth="yes"/>
      <point x="788" y="518"/>
      <point x="731" y="595"/>
      <point x="599" y="595" type="curve" smooth="yes"/>
      <point x="503" y="595"/>
      <point x="462" y="555"/>
      <point x="440" y="523" type="curve"/>
      <point x="434" y="523" type="line"/>
      <point x="416" y="554"/>
      <point x="378" y="595"/>
      <point x="282" y="595" type="curve" smooth="yes"/>
      <point x="151" y="595"/>
      <point x="90" y="528"/>
      <point x="90" y="382" type="curve" smooth="yes"/>
    </contour>
  </outline>
</glyph>
<glyph name="two-way_connector" format="2">
  <advance width="595"/>
  <outline>
    <contour>
      <point x="-40" y="0" type="line"/>
      <point x="192" y="0" type="line" smooth="yes"/>
      <point x="250" y="0"/>
      <point x="280" y="12"/>
      <point x="294" y="48" type="curve"/>
      <point x="300" y="48" type="line"/>
      <point x="314" y="12"/>
      <point x="341" y="0"/>
      <point x="395" y="0" type="curve" smooth="yes"/>
      <point x="635" y="0" type="line"/>
      <point x="635" y="120" type="line"/>
      <point x="422" y="120" type="line" smooth="yes"/>
      <point x="381" y="120"/>
      <point x="372" y="136"/>
      <point x="372" y="178" type="curve" smooth="yes"/>
      <point x="372" y="585" type="line"/>
      <point x="223" y="585" type="line"/>
      <point x="223" y="178" type="line" smooth="yes"/>
      <point x="223" y="136"/>
      <point x="214" y="120"/>
      <point x="173" y="120" type="curve" smooth="yes"/>
      <point x="-40" y="120" type="line"/>
    </contour>
  </outline>
</glyph>
<glyph name="twoway-connector" format="2">
  <advance width="285"/>
  <outline>
    <contour>
      <point x="0" y="0" type="curve" smooth="yes"/>
      <point x="285" y="0" type="line" smooth="yes"/>
      <point x="310" y="0"/>
      <point x="325" y="7"/>
      <point x="325" y="38" type="curve" smooth="yes"/>
      <point x="325" y="120" type="line"/>
      <point x="-40" y="120" type="line"/>
      <point x="-40" y="38" type="line" smooth="yes"/>
      <point x="-40" y="7"/>
      <point x="-25" y="0"/>
    </contour>
  </outline>
</glyph>
<glyph name="ya-adlam.init" format="2">
  <advance width="560"/>
  <anchor x="263" y="575" name="top"/>
  <outline>
    <contour>
      <point x="0" y="0" type="curve" smooth="yes"/>
      <point x="283" y="0" type="line" smooth="yes"/>
      <point x="446" y="0"/>
      <point x="505" y="39"/>
      <point x="505" y="156" type="curve" smooth="yes"/>
      <point x="505" y="266"/>
      <point x="435" y="297"/>
      <point x="396" y="307" type="curve"/>
      <point x="396" y="313" type="line"/>
      <point x="430" y="327"/>
      <point x="492" y="353"/>
      <point x="492" y="450" type="curve" smooth="yes"/>
      <point x="492" y="549"/>
      <point x="426" y="585"/>
      <point x="283" y="585" type="curve" smooth="yes"/>
      <point x="70" y="585" type="line"/>
      <point x="70" y="465" type="line"/>
      <point x="281" y="465" type="line" smooth="yes"/>
      <point x="318" y="465"/>
      <point x="340" y="455"/>
      <point x="340" y="430" type="curve" smooth="yes"/>
      <point x="340" y="403"/>
      <point x="324" y="393"/>
      <point x="282" y="383" type="curve" smooth="yes"/>
      <point x="97" y="339" type="line"/>
      <point x="124" y="224" type="line"/>
      <point x="184" y="239"/>
      <point x="260" y="256"/>
      <point x="277" y="256" type="curve" smooth="yes"/>
      <point x="324" y="256"/>
      <point x="353" y="220"/>
      <point x="353" y="167" type="curve" smooth="yes"/>
      <point x="353" y="133"/>
      <point x="332" y="120"/>
      <point x="283" y="120" type="curve" smooth="yes"/>
      <point x="-40" y="120" type="line"/>
      <point x="-40" y="38" type="line" smooth="yes"/>
      <point x="-40" y="7"/>
      <point x="-25" y="0"/>
    </contour>
  </outline>
</glyph>
<glyph name="yhe-adlam.fina" format="2">
  <advance width="628"/>
  <anchor x="335" y="575" name="top"/>
  <outline>
    <contour>
      <point x="340" y="0" type="curve" smooth="yes"/>
      <point x="628" y="0" type="line" smooth="yes"/>
      <point x="653" y="0"/>
      <point x="668" y="7"/>
      <point x="668" y="38" type="curve" smooth="yes"/>
      <point x="668" y="120" type="line"/>
      <point x="356" y="120" type="line" smooth="yes"/>
      <point x="255" y="120"/>
      <point x="207" y="172"/>
      <point x="207" y="267" type="curve" smooth="yes"/>
      <point x="207" y="370"/>
      <point x="286" y="458"/>
      <point x="366" y="458" type="curve" smooth="yes"/>
      <point x="431" y="458" type="line" smooth="yes"/>
      <point x="538" y="458"/>
      <point x="601" y="492"/>
      <point x="623" y="516" type="curve"/>
      <point x="565" y="623" type="line"/>
      <point x="538" y="595"/>
      <point x="492" y="578"/>
      <point x="421" y="578" type="curve" smooth="yes"/>
      <point x="98" y="578" type="line"/>
      <point x="98" y="458" type="line"/>
      <point x="184" y="458" type="line"/>
      <point x="185" y="450" type="line"/>
      <point x="139" y="429"/>
      <point x="55" y="378"/>
      <point x="55" y="246" type="curve" smooth="yes"/>
      <point x="55" y="87"/>
      <point x="143" y="0"/>
    </contour>
  </outline>
</glyph>
